<svg xmlns="http://www.w3.org/2000/svg" version="1.1" xmlns:xlink="http://www.w3.org/1999/xlink" xmlns:svgjs="http://svgjs.dev/svgjs" width="1500" height="306" viewBox="0 0 1500 306"><g transform="matrix(1,0,0,1,-0.9090909090911055,0.054404000618006876)"><svg viewBox="0 0 396 81" data-background-color="#191552" preserveAspectRatio="xMidYMid meet" height="306" width="1500" xmlns="http://www.w3.org/2000/svg" xmlns:xlink="http://www.w3.org/1999/xlink"><g id="tight-bounds" transform="matrix(1,0,0,1,0.24000000000003752,-0.014401058987118631)"><svg viewBox="0 0 395.5199999999999 81.02880211797421" height="81.02880211797421" width="395.5199999999999"><g><svg viewBox="0 0 441.3054603050264 90.40870958899046" height="81.02880211797421" width="395.5199999999999"><g transform="matrix(1,0,0,1,45.7854603050264,0)"><svg viewBox="0 0 395.52 90.40870958899046" height="90.40870958899046" width="395.52"><g id="textblocktransform"><svg viewBox="0 0 395.52 90.40870958899046" height="90.40870958899046" width="395.52" id="textblock"><g><svg viewBox="0 0 395.52 90.40870958899046" height="90.40870958899046" width="395.52"><g transform="matrix(1,0,0,1,0,0)"><svg width="395.52" viewBox="1.2605099999999965 -21.02078 211.10234000000003 48.25417" height="90.40870958899046" data-palette-color="url(#d6bda003-add8-463d-b9f9-1e78ebb5233f)"></svg></g></svg></g></svg></g></svg></g><g transform="matrix(1,0,0,1,0,10.397001602733901)"><svg viewBox="0 0 40.38951061430057 69.61470638352266" height="69.61470638352266" width="40.38951061430057"><g><svg xmlns="http://www.w3.org/2000/svg" xmlns:xlink="http://www.w3.org/1999/xlink" version="1.1" x="0" y="0" viewBox="21.679106830508616 1 56.85827385947762 98" enable-background="new 0 0 100 100" xml:space="preserve" height="69.61470638352266" width="40.38951061430057" class="icon-icon-0" data-fill-palette-color="accent" id="icon-0"><g fill="#6ee2f5" data-fill-palette-color="accent"><path fill-rule="evenodd" clip-rule="evenodd" d="M30.545 28.822C29.38 36.039 30.875 43.672 37.045 47.863 30.758 19.81 45.756 8.664 59.646 1 43.466 24.046 76.542 24.644 78.423 51.13 80.028 73.71 64.507 91.317 46.639 99 46.845 76.175 24.089 73.067 21.801 54.397 20.905 47.094 25.062 33.766 30.545 28.822" fill="#6ee2f5" data-fill-palette-color="accent"></path></g></svg></g></svg></g></svg></g><defs></defs><mask id="c779d252-3f5f-4a9e-afcc-5cd32361314b"><g id="SvgjsG2886"><svg viewBox="0 0 395.5199999999999 81.02880211797421" height="81.02880211797421" width="395.5199999999999"><g><svg viewBox="0 0 441.3054603050264 90.40870958899046" height="81.02880211797421" width="395.5199999999999"><g transform="matrix(1,0,0,1,45.7854603050264,0)"><svg viewBox="0 0 395.52 90.40870958899046" height="90.40870958899046" width="395.52"><g id="SvgjsG2885"><svg viewBox="0 0 395.52 90.40870958899046" height="90.40870958899046" width="395.52" id="SvgjsSvg2884"><g><svg viewBox="0 0 395.52 90.40870958899046" height="90.40870958899046" width="395.52"><g transform="matrix(1,0,0,1,0,0)"><svg width="395.52" viewBox="1.2605099999999965 -21.02078 211.10234000000003 48.25417" height="90.40870958899046" data-palette-color="url(#d6bda003-add8-463d-b9f9-1e78ebb5233f)"><path d="M35.036 21.04l-4.312-0.97 5.852-26.01-15.731 17.483-2.644-0.595-6.767-22.545-5.852 26.01-4.321-0.972 7.664-34.069 4.557 1.025 7.355 24.892 17.357-19.332 4.507 1.014zM49.372 18.976l19.112 2.538-0.517 3.896-23.504-3.122 4.598-34.616 23.057 3.063-0.518 3.905-18.667-2.479-1.489 11.212 16.228 2.155-0.486 3.658-16.227-2.155zM87.076 26.43l-12.082-0.665 1.921-34.867 12.081 0.665c3.734 0.206 6.81 1.156 9.228 2.852 2.417 1.689 4.176 3.886 5.275 6.59 1.1 2.705 1.561 5.661 1.384 8.87v0c-0.195 3.535-1.053 6.575-2.575 9.122-1.515 2.541-3.574 4.464-6.177 5.769-2.602 1.299-5.62 1.854-9.055 1.664zM100.41 9.628v0c0.144-2.616-0.211-4.966-1.064-7.049-0.853-2.083-2.164-3.748-3.931-4.994-1.774-1.246-3.986-1.942-6.635-2.088v0l-7.659-0.422-1.487 27.009 7.658 0.422c2.683 0.148 4.976-0.327 6.879-1.424 1.896-1.091 3.377-2.635 4.441-4.632 1.058-1.992 1.657-4.265 1.798-6.822zM115.294 27.233l-4.43-0.002 0.016-34.92 4.43 0.002zM150.623 16.351v0c0.102 1.797-0.265 3.394-1.101 4.79-0.842 1.397-2.021 2.515-3.536 3.355-1.508 0.84-3.198 1.313-5.068 1.419v0l-16.543 0.937-1.973-34.865 17.332-0.981c1.637-0.093 3.08 0.26 4.326 1.057 1.241 0.804 2.219 1.868 2.935 3.19 0.716 1.322 1.115 2.718 1.199 4.189v0c0.096 1.704-0.246 3.326-1.027 4.865-0.788 1.54-1.963 2.715-3.526 3.525v0c2.03 0.473 3.672 1.471 4.927 2.997 1.248 1.519 1.933 3.359 2.055 5.522zM146.116 15.815v0c-0.061-1.078-0.354-2.063-0.878-2.955-0.531-0.885-1.211-1.584-2.042-2.098-0.837-0.514-1.778-0.741-2.823-0.681v0l-12.47 0.706 0.678 11.98 12.12-0.686c1.085-0.061 2.044-0.393 2.879-0.994 0.834-0.608 1.481-1.376 1.943-2.303 0.455-0.927 0.653-1.917 0.593-2.969zM138.433-5.074l-11.392 0.645 0.659 11.631 11.092-0.628c1.052-0.06 1.962-0.371 2.732-0.935 0.776-0.571 1.375-1.313 1.797-2.226 0.422-0.912 0.604-1.891 0.545-2.935v0c-0.063-1.112-0.339-2.091-0.828-2.938-0.495-0.84-1.14-1.501-1.935-1.984-0.801-0.475-1.691-0.686-2.67-0.63zM172.411 22.518v0c-2.429 0.348-4.703 0.175-6.822-0.518-2.119-0.686-4.021-1.764-5.706-3.233-1.684-1.463-3.066-3.184-4.144-5.165-1.079-1.987-1.777-4.083-2.093-6.287v0c-0.33-2.303-0.232-4.56 0.293-6.77 0.531-2.218 1.415-4.25 2.652-6.097 1.244-1.848 2.787-3.393 4.63-4.634 1.843-1.24 3.932-2.028 6.268-2.362v0c2.435-0.349 4.714-0.164 6.838 0.556 2.123 0.719 4.022 1.821 5.696 3.305 1.667 1.485 3.039 3.211 4.116 5.179 1.076 1.961 1.769 4.03 2.082 6.208v0c0.33 2.303 0.239 4.559-0.274 6.767-0.511 2.215-1.389 4.246-2.632 6.095-1.237 1.847-2.778 3.385-4.623 4.612-1.845 1.227-3.938 2.009-6.281 2.344zM158.071 6.682v0c0.251 1.755 0.778 3.411 1.58 4.966 0.802 1.555 1.815 2.892 3.039 4.009 1.218 1.119 2.612 1.946 4.184 2.482 1.565 0.537 3.239 0.678 5.021 0.422v0c1.854-0.266 3.455-0.892 4.802-1.88 1.347-0.988 2.439-2.205 3.275-3.651 0.838-1.44 1.407-3.01 1.71-4.71 0.302-1.7 0.334-3.378 0.097-5.035v0c-0.251-1.755-0.777-3.401-1.576-4.936-0.8-1.542-1.817-2.881-3.051-4.018-1.239-1.129-2.634-1.956-4.184-2.482-1.549-0.519-3.202-0.653-4.957-0.401v0c-1.848 0.265-3.447 0.881-4.796 1.849-1.355 0.975-2.451 2.186-3.288 3.633-0.831 1.439-1.408 3.003-1.732 4.693-0.325 1.683-0.366 3.369-0.124 5.059zM211.495-21.021l0.868 3.844-11.754 2.653 6.821 30.219-4.312 0.974-6.821-30.22-11.754 2.653-0.868-3.843z" opacity="1" transform="matrix(1,0,0,1,0,0)" fill="white" class="wordmark-text-0" id="SvgjsPath2883"></path></svg></g></svg></g></svg></g></svg></g><g transform="matrix(1,0,0,1,0,10.397001602733901)"><svg viewBox="0 0 40.38951061430057 69.61470638352266" height="69.61470638352266" width="40.38951061430057"><g><svg xmlns="http://www.w3.org/2000/svg" xmlns:xlink="http://www.w3.org/1999/xlink" version="1.1" x="0" y="0" viewBox="21.679106830508616 1 56.85827385947762 98" enable-background="new 0 0 100 100" xml:space="preserve" height="69.61470638352266" width="40.38951061430057" class="icon-icon-0" data-fill-palette-color="accent" id="SvgjsSvg2882"><g fill="black"><path fill-rule="evenodd" clip-rule="evenodd" d="M30.545 28.822C29.38 36.039 30.875 43.672 37.045 47.863 30.758 19.81 45.756 8.664 59.646 1 43.466 24.046 76.542 24.644 78.423 51.13 80.028 73.71 64.507 91.317 46.639 99 46.845 76.175 24.089 73.067 21.801 54.397 20.905 47.094 25.062 33.766 30.545 28.822" fill="black"></path></g></svg></g></svg></g></svg></g><defs><mask></mask></defs></svg><rect width="395.5199999999999" height="81.02880211797421" fill="black" stroke="none" visibility="hidden"></rect></g></mask><linearGradient x1="0" x2="1" y1="0.578" y2="0.595" id="d6bda003-add8-463d-b9f9-1e78ebb5233f"><stop stop-color="#6ee2f5" offset="0"></stop><stop stop-color="#6454f0" offset="1"></stop></linearGradient><rect width="395.5199999999999" height="81.02880211797421" fill="url(#d6bda003-add8-463d-b9f9-1e78ebb5233f)" mask="url(#c779d252-3f5f-4a9e-afcc-5cd32361314b)" data-fill-palette-color="primary"></rect></svg><rect width="395.5199999999999" height="81.02880211797421" fill="none" stroke="none" visibility="hidden"></rect></g></svg></g></svg>